<svg xmlns="http://www.w3.org/2000/svg" xml:space="preserve" viewBox="0 0 24 24"><path d="m21.87 14.07-1.55-.67V7.45a2.06 2.06 90 0 0-2.06-2.06h-3.17v-4.1q0-.26-.1-.5a1.3 1.3 90 0 0-1.2-.79h-3.58a1.3 1.3 90 0 0-1.08.57 1.3 1.3 90 0 0-.22.73v4.09H5.74a2.06 2.06 90 0 0-2.06 2.06v5.95l-1.55.67a1.57 1.57 90 0 0-.85 2L4.55 24h14.9l3.27-7.93a1.57 1.57 90 0 0-.85-2M10.34 2.53h3.32v1.43h-3.32Zm8.55 10.26-6-2.59a2.3 2.3 90 0 0-1.78 0l-6 2.59V7.45q0-.14.05-.25a.6.6 0 0 1 .59-.39h12.5a.6.6 90 0 1 .53.28q.1.15.11.36ZM7.17 8h2.22v2.22H7.17Zm7.44 0h2.22v2.22h-2.22Z"/></svg>