<svg xmlns="http://www.w3.org/2000/svg" viewBox="0 0 24 24" width="1.2em" height="1.2em" id="bike-icon" class="icon" aria-hidden="true"><path fill-rule="evenodd" d="M15.73 6.35a1.9 1.9 90 1 0 0-3.8 1.9 1.9 90 0 0 0 3.8zm-2.62-.45a.95.95 90 0 1 .66.62c.18.51.42.97.72 1.35.82 1.05 2.14 1.64 3.94 1.34a.95.95 90 1 1 .3 1.88 5.91 5.91 90 0 1-5.05-1.32l-2.58 2.28 1.54 1.76a.95.95 90 0 1 .24.62v4.27a.95.95 90 1 1-1.9 0v-3.91l-1.93-2.21-.05-.05a3.54 3.54 90 0 1-.76-1.18 1.61 1.61 90 0 1-.02-1.05c.09-.36.31-.66.58-.93l.01-.01 3.42-3.23a.95.95 90 0 1 .88-.23zM2.43 16.8a2.85 2.85 90 1 1 5.7 0 2.85 2.85 90 0 1-5.7 0zm2.85-4.75a4.75 4.75 90 1 0 0 9.5 4.75 4.75 90 0 0 0-9.5zm10.45 4.75a2.85 2.85 90 1 1 5.7 0 2.85 2.85 90 0 1-5.7 0zm2.85-4.75a4.75 4.75 90 1 0 0 9.5 4.75 4.75 90 0 0 0-9.5z" clip-rule="evenodd"/></svg>