<svg xmlns="http://www.w3.org/2000/svg" viewBox="0 0 24 24"><path fill-rule="evenodd" d="m 15.73 4.88 a 1.9 1.9 90 1 0 0 -3.8 a 1.9 1.9 90 0 0 0 3.8 z m -2.62 -0.45 a 0.95 0.95 90 0 1 0.66 0.62 c 0.18 0.51 0.42 0.97 0.72 1.35 c 0.82 1.05 2.14 1.64 3.94 1.34 a 0.95 0.95 90 1 1 0.3 1.88 a 5.91 5.91 90 0 1 -5.05 -1.32 l -2.58 2.28 l 1.54 1.76 a 0.95 0.95 90 0 1 0.24 0.62 l 0 4.27 a 0.95 0.95 90 1 1 -1.9 0 l 0 -3.91 l -1.93 -2.21 l -0.05 -0.05 a 3.54 3.54 90 0 1 -0.76 -1.18 a 1.61 1.61 90 0 1 -0.02 -1.05 c 0.09 -0.36 0.31 -0.66 0.58 -0.93 l 0.01 -0.01 l 3.42 -3.23 a 0.95 0.95 90 0 1 0.88 -0.23 z m -10.68 10.9 a 2.85 2.85 90 1 1 5.7 0 a 2.85 2.85 90 0 1 -5.7 0 z m 2.85 -4.75 a 4.75 4.75 90 1 0 0 9.5 a 4.75 4.75 90 0 0 0 -9.5 z m 10.45 4.75 a 2.85 2.85 90 1 1 5.7 0 a 2.85 2.85 90 0 1 -5.7 0 z m 2.85 -4.75 a 4.75 4.75 90 1 0 0 9.5 a 4.75 4.75 90 0 0 0 -9.5 z M 1 21 h 1 v 1 h -1 z m 3 0 h 1 v 1 h -1 z m 3 0 h 1 v 1 h -1 z m 3 0 h 1 v 1 h -1 z m 3 0 h 1 v 1 h -1 z m 3 0 h 1 v 1 h -1 z m 3 0 h 1 v 1 h -1 z m 3 0 h 1 v 1 h -1 z" clip-rule="evenodd"/></svg>