<svg xmlns="http://www.w3.org/2000/svg" viewBox="0 0 24 24"><path d="M2.19 11.59a.86.86 0 0 0-.87.86c0 .48.4.87.87.87 1.16 0 1.16-1.74 0-1.74zM14.3 4.3c2.53 0 2.53-3.8 0-3.8a1.9 1.9 0 0 0 0 3.8zm8.14 16.88-3.07-3.64-.97-5.62-.14-.64-.68-3.16c.47.28.92.53.93.53.02.06 1.64 3.12 1.64 3.12.12.22.32.4.56.47.25.07.5.05.73-.07.22-.11.4-.32.47-.57a.9.9 0 0 0-.07-.73L20.09 7.5s-.07-.12-.16-.21a2.3 2.3 0 0 0-.4-.28L16.1 5.06a2.1 2.1 0 0 0-1.98.05c-.02 0-.78.34-1.22 1.37l-1.76 3.54-2.78.54c-.02 0-.05 0-.06.02l-1.16-.8c-.57-.4-.64-1.57-.65-1.62a2.92 2.92 0 0 0-1.27-2.1A3.03 3.03 0 0 0 3 5.5c-1.02.13-1.77 1-1.76 2.03l.03.39a3 3 0 0 0 1.26 1.92c.68.48 1.48.68 2.22.55l.18-.03c.02-.01 1.12-.36 1.67 0l1.03.73a.88.88 0 0 0-.14.45c0 .06 0 .12.02.18.1.53.6.87 1.12.76l3.32-.65s.28-.08.4-.17c.16-.12.28-.34.28-.34l.87-1.76.6 2.9-2.72 2.88-.05.06c-.26.23-.4.55-.4.88v5.97c.13 1.4 2.18 1.4 2.3 0v-5l2.83-2.96.58 3.37c.05.26.18.5.37.7l3.65 4.32c.2.23.48.38.79.4.3.02.6-.07.84-.27.27-.22.4-.55.4-.88a.97.97 0 0 0-.24-.75zM2 6.94c-.18-.57.63-.83.82-.28.2.5-.6.83-.81.29zm1.48-.42c-.19-.57.62-.83.81-.28.2.5-.59.83-.8.29zM2.05 8.35c-.19-.57.62-.83.81-.28.2.5-.58.83-.8.29zm1.51-.28c-.18-.57.63-.84.82-.29.2.51-.59.83-.81.3zm1.42-.42c-.19-.57.62-.83.81-.28.2.5-.58.83-.8.29zM3.67 9.58c-.2-.57.62-.83.81-.28.2.5-.59.83-.81.3zm1.48-.38c-.19-.57.63-.84.82-.28.2.5-.6.83-.82.29z"/></svg>