<svg xmlns="http://www.w3.org/2000/svg" viewBox="0 0 24 24"><path d="M2.96 11.7c-.48 0-.87.38-.87.86s.4.87.87.87a.87.87 0 1 0 0-1.74zm12.12-7.28a1.9 1.9 90 0 0 0-3.8 1.9 1.9 90 0 0-1.9 1.9c0 1.05.85 1.9 1.9 1.9zm8.14 16.88-3.07-3.64-.97-5.62-.14-.64-.68-3.16c.47.28.92.53.93.53.02.06 1.64 3.12 1.64 3.12.12.22.32.4.56.47.25.07.5.05.73-.07.22-.11.4-.32.47-.57a.9.9 0 0 0-.07-.73l-1.76-3.37s-.07-.12-.16-.21a2.3 2.3 0 0 0-.4-.28l-3.43-1.96a2.1 2.1 0 0 0-1.98.05c-.02.01-.78.34-1.22 1.37l-1.76 3.54-2.78.54c-.02 0-.05 0-.06.02l-2.5-1.76c-.57-.4-.64-1.57-.65-1.62a2.92 2.92 0 0 0-1.27-2.1 3.03 3.03 0 0 0-2.22-.55A2.02 2.02 0 0 0 .67 6.69l.03.39c.13.75.58 1.44 1.26 1.92s1.48.68 2.22.55l.18-.03c.02-.01 1.12-.36 1.67.01l2.37 1.68a.88.88 0 0 0-.14.45c0 .06 0 .12.02.18.1.53.6.87 1.12.76l3.32-.65s.28-.08.4-.17c.16-.12.28-.34.28-.34l.87-1.76.6 2.9-2.72 2.88-.05.06c-.26.23-.4.55-.4.88v5.97a1.16 1.16 0 0 0 2.31 0v-4.99l2.82-2.97.58 3.37c.05.26.18.5.37.7l3.65 4.32c.2.23.48.38.79.4.3.02.6-.07.84-.27.27-.22.4-.55.4-.88a.97.97 0 0 0-.24-.75zM4.97 8.28c-.2.28-.52.47-.9.53a2.2 2.2 0 0 1-1.66-.43 2.26 2.26 0 0 1-.96-1.43l-.02-.28c0-.28.08-.53.24-.75.5-.7 1.66-.75 2.57-.1.9.64 1.24 1.75.73 2.46z"/></svg>