<svg xmlns="http://www.w3.org/2000/svg" xml:space="preserve" viewBox="0 0 24 24" width="1.2em" height="1.2em" id="bike-icon" class="icon" aria-hidden="true"><path d="M12.71 4.44a1.9 1.9 0 0 0 2.02-1.73A1.9 1.9 0 0 0 13 .69a1.88 1.88 0 0 0-.29 3.75m-1.58.76c.36-.27.8-.41 1.3-.39.62.05 1.18.45 1.48.91l1.87 3.72 2.55 1.78a.9.9 0 0 1 .33.73c-.01.47-.44.8-.9.75a.88.88 0 0 1-.4-.12l-2.74-1.87c-.07-.08-.16-.16-.21-.27l-.72-1.39-.83 3.7 3.31 3.92c.07.13.13.27.16.39l.89 4.72v.27c-.05.71-.66 1.2-1.35 1.18-.57-.06-1-.47-1.14-1l-.84-4.4-2.69-2.99-.62 2.87c-.02.12-.22.41-.27.51l-2.56 4.37c-.27.39-.68.66-1.18.6a1.26 1.26 0 0 1-1.18-1.35c.02-.22.11-.39.18-.55l2.41-4.01 1.99-8.85-1.3 1.05-.71 3.15a.9.9 0 0 1-.89.71c-.46-.02-.8-.44-.79-.91 0-.01 0-.07.02-.1l.8-3.67a.77.77 0 0 1 .27-.39l3.76-3.07z"/></svg>